<svg width="256" height="256" viewBox="0 0 256 256" fill="none" xmlns="http://www.w3.org/2000/svg">
<path d="M47 94C47 94 47 121.549 74.551 121.549C74.551 121.549 47 121.549 47 149.101V162.877C47 162.877 47 190.429 74.551 190.429H112.877C114.534 190.429 115.877 189.086 115.877 187.429V121.549C115.877 121.549 115.877 94 88.327 94H47Z" fill="#865CFF"/>
<g filter="url(#filter0_d_1377_1089)">
<path d="M160.878 66V176.205C160.878 189.98 147.104 189.98 147.104 189.98H119.552C92 189.98 92 162.43 92 162.43V121.102C92 93.554 119.552 93.554 119.552 93.554L133.326 93.552C133.326 93.552 133.326 66 160.878 66Z" fill="#7492FF"/>
</g>
<g filter="url(#filter1_d_1377_1089)">
<path d="M140 121.548C140 121.548 140 94 167.552 94H208.878C208.878 94 208.878 121.548 181.327 121.548V162.876C181.327 162.876 208.878 162.876 208.878 190.426H167.552C167.552 190.426 140 190.426 140 162.876V121.548Z" fill="#A4BDFF"/>
</g>
<defs>
<filter id="filter0_d_1377_1089" x="82" y="59" width="82.8779" height="137.98" filterUnits="userSpaceOnUse" color-interpolation-filters="sRGB">
<feFlood flood-opacity="0" result="BackgroundImageFix"/>
<feColorMatrix in="SourceAlpha" type="matrix" values="0 0 0 0 0 0 0 0 0 0 0 0 0 0 0 0 0 0 127 0" result="hardAlpha"/>
<feOffset dx="-3"/>
<feGaussianBlur stdDeviation="3.5"/>
<feComposite in2="hardAlpha" operator="out"/>
<feColorMatrix type="matrix" values="0 0 0 0 0 0 0 0 0 0 0 0 0 0 0 0 0 0 0.07 0"/>
<feBlend mode="normal" in2="BackgroundImageFix" result="effect1_dropShadow_1377_1089"/>
<feBlend mode="normal" in="SourceGraphic" in2="effect1_dropShadow_1377_1089" result="shape"/>
</filter>
<filter id="filter1_d_1377_1089" x="130" y="87" width="82.8779" height="110.426" filterUnits="userSpaceOnUse" color-interpolation-filters="sRGB">
<feFlood flood-opacity="0" result="BackgroundImageFix"/>
<feColorMatrix in="SourceAlpha" type="matrix" values="0 0 0 0 0 0 0 0 0 0 0 0 0 0 0 0 0 0 127 0" result="hardAlpha"/>
<feOffset dx="-3"/>
<feGaussianBlur stdDeviation="3.5"/>
<feComposite in2="hardAlpha" operator="out"/>
<feColorMatrix type="matrix" values="0 0 0 0 0 0 0 0 0 0 0 0 0 0 0 0 0 0 0.05 0"/>
<feBlend mode="normal" in2="BackgroundImageFix" result="effect1_dropShadow_1377_1089"/>
<feBlend mode="normal" in="SourceGraphic" in2="effect1_dropShadow_1377_1089" result="shape"/>
</filter>
</defs>
</svg>
