<?xml version="1.0" standalone="no"?>
<!DOCTYPE svg PUBLIC "-//W3C//DTD SVG 20010904//EN"
 "http://www.w3.org/TR/2001/REC-SVG-20010904/DTD/svg10.dtd">
<svg version="1.0" xmlns="http://www.w3.org/2000/svg"
 width="768.000000pt" height="768.000000pt" viewBox="0 0 768.000000 768.000000"
 preserveAspectRatio="xMidYMid meet">
<metadata>
Created by potrace 1.14, written by Peter Selinger 2001-2017
</metadata>
<g transform="translate(0.000000,768.000000) scale(0.100000,-0.100000)"
fill="#000000" stroke="none">
<path d="M4708 5695 c-2 -2 -26 -5 -54 -9 -108 -12 -250 -71 -339 -140 -44
-33 -135 -123 -135 -132 0 -3 -11 -20 -24 -37 -70 -92 -140 -295 -151 -434 -2
-30 -7 -58 -10 -62 -11 -11 -175 -8 -175 3 0 8 -3 8 -8 0 -4 -6 -52 -10 -122
-10 -146 0 -239 -9 -315 -30 -33 -9 -68 -17 -77 -18 -10 0 -18 -4 -18 -8 0 -4
-5 -8 -11 -8 -6 0 -44 -16 -83 -35 l-72 -35 -57 31 c-66 36 -93 45 -207 69
-78 17 -143 19 -763 20 l-678 0 6 -57 c25 -242 114 -437 264 -575 93 -87 196
-139 339 -172 77 -18 66 -16 102 -16 17 0 30 -5 30 -10 0 -6 -3 -9 -7 -8 -15
4 -108 -14 -172 -34 -225 -68 -393 -207 -485 -402 -63 -132 -70 -184 -73 -541
-1 -186 2 -341 8 -370 5 -27 11 -57 13 -65 16 -79 60 -202 88 -242 10 -14 18
-30 18 -35 0 -10 58 -90 100 -137 73 -82 226 -169 350 -199 113 -27 139 -28
791 -29 505 -1 641 1 653 11 9 8 26 11 41 7 30 -8 943 -8 995 0 49 7 131 33
157 50 20 12 32 11 112 -16 49 -17 98 -30 110 -30 12 0 21 -3 21 -7 0 -5 15
-9 33 -9 32 -2 1332 -6 1354 -5 8 1 10 20 7 64 -23 372 -220 617 -579 721 -48
14 -119 28 -158 32 -40 3 -75 8 -79 11 -5 2 -8 282 -8 621 l0 617 48 1 c131 2
246 31 371 92 55 27 97 59 158 119 46 45 83 87 83 92 0 5 6 16 14 23 7 8 32
52 54 99 53 111 89 244 97 364 l2 35 -331 0 c-875 1 -1085 -2 -1105 -15 -3 -2
-6 190 -5 426 l1 429 -58 -1 c-32 -1 -60 -3 -61 -4z"/>
</g>
</svg>
